<?xml version="1.0" encoding="UTF-8"?>
<svg id="Layer_1" data-name="Layer 1" xmlns="http://www.w3.org/2000/svg" viewBox="0 0 5000 1000">
  <defs>
    <style>
      .cls-1 {
        fill: #ffcb00;
      }

      .cls-2 {
        fill: #fb0024;
      }

      .cls-3 {
        fill: #f30020;
      }

      .cls-4 {
        fill: #ed0019;
      }

      .cls-5 {
        fill: #fa0023;
      }

      .cls-6 {
        fill: #002fa0;
      }

      .cls-7 {
        fill: #e9e9e9;
      }

      .cls-8 {
        fill: #f8f8f8;
      }

      .cls-9 {
        fill: #f5f5f5;
      }

      .cls-10 {
        fill: #fbfbfb;
      }

      .cls-11 {
        fill: #fe0024;
      }

      .cls-12 {
        fill: #eee;
      }
    </style>
  </defs>
  <path d="M936.62,580.24c-22.64,0-43.68-2.33-62.96-6.93-19.28-4.67-36.11-11.26-50.41-19.98-14.3-8.65-25.49-19.43-33.45-32.26-7.96-12.91-11.97-27.73-11.97-44.62v-5.08c0-1.72.19-3.16.58-4.46h86.58v5.77c.39,10.16,3.95,18.4,10.74,24.71,6.73,6.32,15.72,10.85,26.85,13.59,11.13,2.75,22.91,4.12,35.2,4.12,11.52,0,22.78-.82,33.72-2.54,10.93-1.72,20.12-5.08,27.44-10.16,7.38-5.08,11.06-11.81,11.06-20.25,0-10.57-4.4-18.33-13.13-23.41-8.73-5.08-20.77-9.06-36.1-12.01-15.34-2.95-32.55-6.32-51.64-10.16-15.92-2.95-31.13-6.73-45.69-11.39-14.49-4.67-27.57-10.64-39.08-18.05-11.52-7.41-20.71-16.89-27.44-28.49-6.79-11.6-10.16-26.08-10.16-43.38s3.75-33.77,11.32-46.89c7.57-13.11,18.31-23.82,32.22-32.26,13.91-8.44,30.35-14.69,49.24-18.67,18.89-3.98,39.28-6.04,61.15-6.04,20.32,0,39.4,1.99,57.33,6.04,17.92,3.98,33.45,9.95,46.52,17.71,13.14,7.83,23.56,17.64,31.32,29.45,7.77,11.81,11.65,25.12,11.65,39.88v6.93c0,2.13-.2,3.78-.58,5.08h-86.52v-4.46c0-8.03-2.71-14.55-8.09-19.63-5.37-5.08-12.75-8.99-22.06-11.74-9.38-2.75-19.99-4.12-31.97-4.12-5.95,0-12.74.41-20.32,1.24-7.57.82-14.82,2.33-21.81,4.46-6.99,2.13-12.55,5.08-16.69,8.86-4.14,3.78-6.28,8.65-6.28,14.55,0,7.62,3.75,13.59,11.32,18.05,7.57,4.46,17.6,7.89,30.15,10.43,12.55,2.54,26.14,5.29,40.9,8.24,16.69,3.77,33.45,7.69,50.14,11.74,16.7,3.98,32.04,9.41,45.95,16.13,13.91,6.73,24.85,16.47,32.8,29.11,7.96,12.63,11.91,29.59,11.91,50.66s-3.88,37.48-11.65,51.62c-7.76,14.14-18.76,25.54-33.13,34.19-14.29,8.65-31.25,14.9-50.73,18.67-19.28,3.84-40.76,5.77-64.25,5.77Z"/>
  <path d="M1275.05,580.24c-37.4,0-66.32-10.16-86.84-30.41-20.51-20.25-30.74-52.1-30.74-95.62v-214.65h87.16v199.42c0,12.29,1.36,22.51,4.2,30.68,2.78,8.24,6.99,14.9,12.55,19.98,5.57,5.08,12.23,8.79,19.99,11.05,7.77,2.27,16.63,3.5,26.53,3.5,14.29,0,27.37-3.36,39.08-10.16,11.71-6.73,21.16-16.13,28.34-28.15,7.18-12.01,10.74-25.67,10.74-40.84v-185.55h87.75v333.07h-71.63l-6.54-50.66h-4.2c-9.58,13.11-20.32,23.96-32.22,32.61-11.98,8.65-25.17,15.1-39.66,19.29-14.57,4.33-29.38,6.45-44.52,6.45Z"/>
  <path d="M1552.57,688.49V239.55h71.05l7.77,48.12h4.2c12.36-20.25,27.95-34.6,46.85-43.04,18.89-8.44,39.46-12.63,61.79-12.63,29.05,0,54.22,6.11,75.51,18.4,21.29,12.22,37.72,31.23,49.25,56.98,11.51,25.74,17.27,58.69,17.27,98.78s-5.89,71.8-17.6,97.54c-11.71,25.74-27.96,44.96-48.66,57.59-20.71,12.63-44.97,19.01-72.8,19.01-13.91,0-27.37-1.72-40.32-5.08-12.94-3.36-24.78-8.58-35.52-15.51-10.74-6.93-19.93-15.51-27.43-25.67h-3.57v154.52h-87.81v-.07ZM1719.13,504.86c17.93,0,32.62-3.5,44.2-10.43,11.51-6.93,20.06-17.5,25.69-31.64,5.56-14.14,8.34-30.89,8.34-50.32v-12.63c0-20.25-2.78-37.34-8.34-51.28-5.57-13.93-14.11-24.37-25.69-31.37-11.58-6.94-26.47-10.44-44.78-10.44-17.08,0-31.58,3.78-43.29,11.4-11.72,7.62-20.71,18.46-26.86,32.6-6.21,14.14-9.25,30.96-9.25,50.32v8.86c0,14.35,1.82,27.53,5.37,39.54,3.56,12.01,8.67,22.17,15.21,30.41,6.53,8.24,14.69,14.48,24.45,18.67,9.77,4.26,21.43,6.32,34.94,6.32Z"/>
  <path d="M2114.8,580.24c-37.79,0-69.95-6.25-96.41-18.67-26.47-12.43-46.65-31.58-60.57-57.32-13.91-25.74-20.91-58.49-20.91-98.16s6.93-72.42,20.91-98.16c13.91-25.74,33.9-44.82,59.99-57.32,26.07-12.43,57.59-18.67,94.6-18.67s66.97,6.11,92.21,18.4c25.24,12.22,44.39,30.89,57.26,56.01,12.94,25.13,19.41,56.63,19.41,94.66v25.95h-254.24c.78,19.43,4.6,35.56,11.33,48.46,6.73,12.91,16.63,22.31,29.57,28.21,12.95,5.9,28.92,8.85,48.08,8.85,9.51,0,18.7-1.17,27.44-3.5,8.73-2.33,16.69-5.9,23.87-10.78,7.18-4.87,13.14-10.85,17.93-18.05,4.78-7.14,7.37-15.38,7.76-24.71h87.75c0,19.43-4.09,36.93-12.23,52.58-8.15,15.65-19.41,28.69-33.72,39.26-14.3,10.57-31.64,18.67-51.96,24.37-20.32,5.7-42.96,8.58-68.07,8.58ZM2028.29,369.36h161.12c0-11.81-1.88-22.17-5.69-31.03-3.82-8.86-9.06-16.27-15.79-22.17-6.8-5.9-14.76-10.23-23.88-12.97-9.13-2.75-19.28-4.12-30.42-4.12-17.08,0-31.7,2.61-43.87,7.9-12.16,5.28-21.61,13.18-28.34,23.75-6.8,10.64-11.2,23.47-13.13,38.65Z"/>
  <path d="M2345.81,572.62V239.55h71.63l7.18,54.44h4.21c3.94-11.4,9.77-21.97,17.27-31.64,7.57-9.68,16.83-17.3,27.76-22.79,10.93-5.49,23.35-8.24,37.33-8.24,7.18,0,13.71.62,19.68,1.92,5.95,1.24,11.12,2.75,15.52,4.46v81.07h-34.61c-13.53,0-25.18,2.2-34.94,6.66-9.77,4.46-17.93,10.78-24.46,19.01-6.53,8.24-11.33,17.85-14.3,28.83-2.98,10.98-4.46,23.41-4.46,37.34v162.07h-87.81v-.07Z"/>
  <path d="M2706.88,580.24c-21.87,0-39.8-3.57-53.71-10.78-13.91-7.14-24.2-17.85-30.74-31.99-6.53-14.14-9.83-31.78-9.83-52.86v-175.39h-48.33v-69.67h51.9l16.69-96.86h67.42s0,96.86,0,96.86h70.4v69.67h-70.4v162.07c0,12.63,2.46,22.24,7.45,28.83,4.98,6.52,14.42,9.82,28.34,9.82h34.61v60.13c-5.17,1.72-11.51,3.29-19.09,4.74-7.57,1.44-15.34,2.75-23.29,3.78-7.89,1.1-15.01,1.65-21.42,1.65Z"/>
  <path d="M2993.39,580.24c-37.78,0-69.95-6.25-96.41-18.67-26.47-12.43-46.65-31.58-60.57-57.32-13.91-25.74-20.9-58.49-20.9-98.16s6.99-72.42,20.9-98.16c13.91-25.74,33.9-44.82,59.99-57.32,26.07-12.43,57.59-18.67,94.61-18.67s66.97,6.11,92.19,18.4c25.25,12.22,44.39,30.89,57.34,56.01,12.96,25.13,19.41,56.63,19.41,94.66v25.95h-254.24c.78,19.43,4.6,35.56,11.33,48.46,6.73,12.91,16.63,22.31,29.57,28.21,12.95,5.9,28.92,8.85,48.08,8.85,9.58,0,18.7-1.17,27.44-3.5,8.73-2.33,16.69-5.9,23.87-10.78,7.18-4.87,13.13-10.85,17.93-18.05,4.78-7.14,7.37-15.38,7.76-24.71h87.73c0,19.43-4.07,36.93-12.21,52.58-8.16,15.65-19.41,28.69-33.72,39.26-14.31,10.57-31.65,18.67-51.9,24.37-20.44,5.7-43.16,8.58-68.2,8.58ZM2906.82,369.36h161.18c0-11.81-1.87-22.17-5.69-31.03-3.75-8.86-9.06-16.27-15.79-22.17-6.8-5.9-14.76-10.23-23.88-12.97-9.19-2.75-19.28-4.12-30.41-4.12-17.08,0-31.71,2.61-43.87,7.9-12.16,5.28-21.61,13.18-28.34,23.75-6.8,10.64-11.2,23.47-13.2,38.65Z"/>
  <path d="M3323.48,580.24c-13.92,0-27.83-1.51-41.82-4.46-13.91-2.95-26.34-7.83-37.26-14.55-10.93-6.73-19.8-16.34-26.52-28.83-6.81-12.43-10.17-28.35-10.17-47.78,0-24.92,5.56-45.03,16.7-60.48,11.13-15.38,27.23-26.98,48.33-34.8,21.09-7.83,46.07-12.98,74.94-15.52,28.85-2.54,60.57-3.78,95.18-3.78v-19.63c0-11.4-2.28-20.8-6.85-28.14-4.61-7.41-11.71-13.18-21.49-17.44-9.77-4.19-22.77-6.32-39.08-6.32-14.3,0-26.54,1.58-36.68,4.74-10.17,3.16-17.95,7.28-23.3,12.36-5.38,5.08-8.1,10.98-8.1,17.71v7.62h-85.93c-.39-2.54-.71-4.67-.9-6.32-.2-1.72-.32-3.77-.32-6.31,0-19.43,6.14-36.38,18.49-50.94,12.38-14.55,30.36-25.74,54.03-33.57,23.69-7.82,52.03-11.74,85.04-11.74s60.75,3.78,83.27,11.4c22.47,7.62,39.68,19.43,51.64,35.49,11.92,16.06,17.95,36.52,17.95,61.44v146.28c0,7.62,1.86,13.39,5.68,17.44,3.74,3.98,8.49,6.04,14.06,6.04h25.02v59.52c-4.39,2.13-11.32,4.33-20.89,6.66-9.6,2.33-20.73,3.5-33.47,3.5-14.75,0-26.84-1.99-36.44-6.04-9.57-3.98-17-9.47-22.38-16.47-5.36-7-9.25-15.1-11.63-24.37h-4.78c-8.35,9.27-18.65,17.64-30.76,24.99-12.16,7.41-25.88,12.97-41.21,16.75-15.28,3.64-32.1,5.56-50.33,5.56ZM3349.68,511.87c11.52,0,22.76-1.58,33.72-4.74,10.93-3.16,20.77-7.62,29.56-13.32,8.73-5.7,15.92-12.91,21.48-21.56,5.57-8.65,8.35-18.05,8.35-28.14v-18.33c-31.05,0-57.52,1.58-79.4,4.74-21.85,3.16-38.69,8.44-50.4,15.86-11.71,7.41-17.6,17.64-17.6,30.68,0,8.44,2.4,15.17,7.18,20.25,4.78,5.08,11.31,8.79,19.66,11.05,8.35,2.33,17.55,3.5,27.45,3.5Z"/>
  <path d="M3616.48,572.62V239.55h71.63l7.18,50.04h4.2c8.35-13.11,18.38-23.96,30.16-32.61,11.7-8.65,24.38-14.96,37.9-19.01,13.53-3.98,27.44-6.04,41.82-6.04,24.27,0,44.76,4.53,61.46,13.59,16.69,9.06,29.44,23.75,38.18,44h4.21c8.74-13.11,19.02-23.96,30.73-32.61,11.7-8.65,24.66-14.96,38.82-19.01,14.1-3.98,28.55-6.04,43.29-6.04,23.49,0,43.47,4.26,59.99,12.63,16.49,8.44,29.3,21.97,38.5,40.5,9.11,18.6,13.71,42.22,13.71,70.91v216.58h-88.32v-200.72c0-11.81-1.29-21.97-3.89-30.41-2.58-8.44-6.28-15.17-11.06-20.25-4.78-5.08-10.86-8.65-18.18-10.78-7.38-2.13-15.2-3.16-23.55-3.16-13.14,0-25.19,3.29-36.11,9.82-10.93,6.52-19.67,15.86-26.27,27.87-6.53,12.01-9.84,25.67-9.84,40.84v186.79h-87.15v-200.72c0-11.81-1.43-21.97-4.21-30.41-2.78-8.44-6.67-15.17-11.64-20.25-4.99-5.08-10.94-8.65-17.94-10.78-6.97-2.13-14.99-3.16-24.2-3.16-13.14,0-25.16,3.29-36.09,9.82-10.95,6.52-19.63,15.86-25.97,27.87-6.33,12.01-9.57,25.67-9.57,40.84v186.78h-87.8v.14Z"/>
  <path d="M521.6,254.47h126.25v48.32c0,65.54-53.44,118.51-119.57,118.51h-6.69v-166.83ZM341.92,184.28h179.68v456.16h-21.38c-130.25,0-156.3-90.03-156.3-170.15l-2-286.01ZM50,287.57c0,81.43,58.78,111.23,124.24,121.16H50v233.04h119.57c120.24,0,134.26-52.97,134.26-103.29,0-61.58-42.74-104.6-108.89-121.16h108.89v-233.04h-119.57c-120.23,0-134.26,52.97-134.26,103.29Z"/>
  <path d="M4313.97,694.92h50.82l88.35,215.73h3.25l88.35-215.73h50.82v277.52h-39.84v-200.82h-2.57l-81.85,200.42h-33.06l-81.85-200.55h-2.57v200.96h-39.84v-277.52ZM4635.03,694.92h47.56l72.5,126.16h2.98l72.5-126.16h47.56l-100.68,168.57v108.95h-41.74v-108.95l-100.68-168.57Z"/>
  <g>
    <path class="cls-5" d="M4908.58,401c-208.68-80.07-417.36,80.07-626.04,0v28.69c208.68,80.07,417.36-80.07,626.04,0v-28.69Z"/>
    <path class="cls-8" d="M4908.58,372.41c-208.68-80.07-417.36,80.07-626.04,0v28.69c208.68,80.07,417.36-80.07,626.04,0v-28.69Z"/>
    <path class="cls-2" d="M4908.58,343.82c-208.68-80.07-417.36,80.07-626.04,0v28.69c208.68,80.07,417.36-80.07,626.04,0v-28.69Z"/>
    <path class="cls-10" d="M4908.58,315.24c-208.68-80.07-417.36,80.07-626.04,0v28.69c208.68,80.07,417.36-80.07,626.04,0v-28.69Z"/>
    <path class="cls-11" d="M4908.58,286.65c-208.68-80.07-417.36,80.07-626.04,0v28.69c208.68,80.07,417.36-80.07,626.04,0v-28.69Z"/>
    <path class="cls-8" d="M4908.58,258.07c-208.68-80.07-417.36,80.07-626.04,0v28.69c208.68,80.07,417.36-80.07,626.04,0v-28.69Z"/>
    <path class="cls-2" d="M4908.58,229.48c-208.68-80.07-417.36,80.07-626.04,0v28.69c208.68,80.07,417.36-80.07,626.04,0v-28.69Z"/>
    <path class="cls-10" d="M4908.58,200.9c-208.68-80.07-417.36,80.07-626.04,0v28.69c208.68,80.07,417.36-80.07,626.04,0v-28.69Z"/>
    <path class="cls-11" d="M4908.58,172.31c-208.68-80.07-417.36,80.07-626.04,0v28.69c208.68,80.07,417.36-80.07,626.04,0v-28.69Z"/>
    <path class="cls-9" d="M4908.58,429.58c-208.68-80.07-417.36,80.07-626.04,0v28.69c208.68,80.07,417.36-80.07,626.04,0v-28.69Z"/>
    <path class="cls-3" d="M4908.58,458.17c-208.68-80.07-417.36,80.07-626.04,0v28.69c208.68,80.07,417.36-80.07,626.04,0v-28.69Z"/>
    <path class="cls-12" d="M4908.58,486.75c-208.68-80.07-417.36,80.07-626.04,0v28.69c208.68,80.07,417.36-80.07,626.04,0v-28.69Z"/>
    <path class="cls-4" d="M4908.58,515.34c-208.68-80.07-417.36,80.07-626.04,0v28.69c208.68,80.07,417.36-80.07,626.04,0v-28.69Z"/>
    <path class="cls-7" d="M4908.58,543.92c-208.68-80.07-417.36,80.07-626.04,0v28.69c208.68,80.07,417.36-80.07,626.04,0v-28.69Z"/>
    <path class="cls-6" d="M4282.54,172.26c104.88,40.24,209.76,19.81,314.64-.31v228.79c-104.88,20.12-209.76,40.56-314.64.31v-228.79Z"/>
    <g>
      <path class="cls-1" d="M4425.75,379.77c12.11-.27,23.58-3.96,33.69-10.07-14.11,12.38-31.85,20.05-51.1,19.78-46.17-.25-83.58-48.41-83.58-95.76,0-47.37,37.41-76.01,83.58-75.76,19.27.27,37.01,5.98,51.14,16.01-10.13-4.47-21.6-6.75-33.73-6.48-40.99,1.2-74.22,29.46-74.22,71.52,0,42.05,33.22,81.96,74.22,80.76Z"/>
      <path class="cls-1" d="M4518.59,306.85c-.22.53-.44,1.04-.69,1.56,9.16,8.58,18.32,17.05,27.48,25.44-11.55-4.89-23.11-9.9-34.66-15.11-.4.42-.81.8-1.23,1.2,4.02,12.5,8.03,24.98,12.05,37.44-7.48-10.2-14.95-20.47-22.43-30.83-.53.22-1.07.42-1.62.59.03,0,.05,0,.08-.01-1.92,13.85-3.84,27.7-5.76,41.53-1.91-13.34-3.83-26.7-5.74-40.05-.53-.04-1.05-.1-1.56-.19-7.48,12.28-14.95,24.46-22.43,36.5,4.02-13.45,8.05-26.94,12.07-40.46-.46-.3-.89-.61-1.31-.94.02.02.04.04.06.06-11.55,8.13-23.09,15.98-34.64,23.45,9.16-10.44,18.32-21.12,27.48-31.98-.24-.45-.47-.91-.69-1.39-13.34,2.33-26.68,4.25-40.02,5.64,12.48-5.21,24.97-10.88,37.45-16.93,0,.03.01.07.02.1-.02-.31-.02-.6-.02-.91,0-.31,0-.6.02-.91,0,.03-.01.07-.02.11-12.48-3.85-24.97-8.06-37.45-12.75,13.34.83,26.68,1.12,40.02,1,.22-.52.44-1.02.69-1.52-9.16-9.16-18.32-18.52-27.48-28.11,11.55,6.4,23.09,12.43,34.64,18.17-.02.02-.04.05-.06.07.42-.42.85-.81,1.31-1.22-4.02-12.68-8.05-25.39-12.07-38.14,7.48,10.74,14.95,21.35,22.43,31.85.51-.2,1.03-.39,1.56-.56,1.91-13.82,3.83-27.65,5.74-41.49,1.92,13.34,3.84,26.68,5.76,40.01-.03,0-.05,0-.08.01.55.03,1.09.08,1.62.15,7.48-12.42,14.95-24.93,22.43-37.51-4.02,13.74-8.03,27.46-12.05,41.16.42.27.83.54,1.23.83,11.55-8.67,23.11-17.53,34.66-26.51-9.16,11.64-18.32,23.2-27.48,34.65.24.44.47.88.69,1.34,13.34-3.2,26.68-6.65,40.02-10.2-12.49,7.24-24.98,14.38-37.47,21.32.02.27.02.54.02.81,0,.27,0,.54-.02.81,12.49,2.96,24.98,5.71,37.47,8.35-13.34,1.35-26.68,2.58-40.02,3.56Z"/>
    </g>
  </g>
</svg>