<?xml version="1.0" encoding="UTF-8"?>
<svg id="Layer_1" data-name="Layer 1" xmlns="http://www.w3.org/2000/svg" xmlns:xlink="http://www.w3.org/1999/xlink" viewBox="0 0 1000 1000">
  <defs>
    <style>
      .cls-1 {
        fill: none;
      }

      .cls-2 {
        fill: #ffcb00;
      }

      .cls-3 {
        fill: #fb0024;
      }

      .cls-4 {
        fill: #f30020;
      }

      .cls-5 {
        fill: #ed0019;
      }

      .cls-6 {
        fill: #fa0023;
      }

      .cls-7 {
        fill: #fff;
      }

      .cls-8 {
        fill: #002fa0;
      }

      .cls-9 {
        fill: #e9e9e9;
      }

      .cls-10 {
        fill: #f8f8f8;
      }

      .cls-11 {
        fill: #f5f5f5;
      }

      .cls-12 {
        fill: #fbfbfb;
      }

      .cls-13 {
        fill: #fe0024;
      }

      .cls-14 {
        fill: #eee;
      }

      .cls-15 {
        clip-path: url(#clippath);
      }
    </style>
    <clipPath id="clippath">
      <circle class="cls-1" cx="782.7" cy="779.92" r="159.38"/>
    </clipPath>
  </defs>
  <path class="cls-7" d="M432.43,60.7h-179.12c-180.08,0-201.03,79.48-201.03,154.81,0,122.02,87.96,166.64,185.99,181.51H52.29v349.28h179.12c180.07,0,201.03-79.32,201.03-154.81,0-92.28-63.97-156.73-163.12-181.52h163.12V60.7ZM489.53,60.7l3.04,428.76c0,81.88,18.07,170.64,91.48,218.94,32.94-67.81,97.55-117.23,174.64-129.38V60.7h-269.15ZM758.52,165.93v250.12h10.08c98.99,0,179.12-79.48,179.12-177.68v-72.45h-189.19Z"/>
  <g class="cls-15">
    <rect class="cls-6" x="614.95" y="747.96" width="334.66" height="31.96"/>
    <rect class="cls-10" x="614.95" y="716.12" width="334.66" height="31.96"/>
    <rect class="cls-3" x="614.95" y="684.28" width="334.66" height="31.96"/>
    <rect class="cls-12" x="614.95" y="652.45" width="334.66" height="31.96"/>
    <rect class="cls-13" x="614.95" y="620.61" width="334.66" height="31.96"/>
    <rect class="cls-11" x="614.95" y="779.8" width="334.66" height="31.96"/>
    <rect class="cls-4" x="614.95" y="811.64" width="334.66" height="31.96"/>
    <rect class="cls-14" x="614.95" y="843.48" width="334.66" height="31.96"/>
    <rect class="cls-5" x="614.95" y="875.32" width="334.66" height="31.96"/>
    <rect class="cls-9" x="614.95" y="907.16" width="334.66" height="31.96"/>
    <rect class="cls-8" x="613.12" y="610.21" width="169.59" height="169.71"/>
    <path class="cls-2" d="M708.98,752.61c5.99,0,11.66-1.44,16.66-3.98-6.98,5.4-15.75,8.62-25.27,8.62-22.83,0-41.33-18.51-41.33-41.33s18.5-41.33,41.33-41.33c9.53,0,18.3,3.23,25.29,8.63-5.01-2.56-10.68-4-16.68-4-20.27,0-36.7,16.43-36.7,36.7s16.43,36.69,36.7,36.69Z"/>
    <path class="cls-2" d="M754.89,721.86c-.11.24-.22.47-.34.7l13.59,14.48-17.14-10.03c-.2.17-.4.33-.61.49l5.96,18.94-11.09-16.47c-.26.07-.53.13-.8.18h.04l-2.85,19.65-2.84-19.65c-.26-.05-.52-.11-.77-.18l-11.09,16.47,5.97-18.94c-.23-.17-.44-.34-.65-.52l.03.03-17.13,10.03,13.59-14.48c-.12-.23-.23-.46-.34-.7l-19.79,1.6,18.52-7.15v.05-.44c0-.15,0-.29.01-.44v.05s-18.53-7.15-18.53-7.15l19.79,1.6c.11-.24.22-.47.34-.7l-13.59-14.48,17.13,10.03-.03.03c.21-.18.42-.35.65-.52l-5.97-18.94,11.09,16.47c.25-.07.51-.13.77-.18l2.84-19.65,2.85,19.65h-.04c.27.05.54.11.8.18l11.09-16.47-5.96,18.94c.21.16.41.32.61.49l17.14-10.03-13.59,14.48c.12.23.23.46.34.7l19.79-1.6-18.53,7.15c.01.13.01.26.01.39s0,.26-.01.39l18.53,7.15-19.79-1.6Z"/>
  </g>
</svg>