<?xml version="1.0" encoding="UTF-8"?>
<svg id="Layer_1" data-name="Layer 1" xmlns="http://www.w3.org/2000/svg" viewBox="0 0 4000 649.76">
  <path d="M189.01,520.82c-26.95,0-51.99-2.78-74.94-8.25-22.95-5.56-42.98-13.4-60-23.78-17.02-10.3-30.35-23.12-39.82-38.4-9.47-15.36-14.25-33.01-14.25-53.11v-6.05c0-2.04.23-3.76.69-5.31h103.06v6.86c.46,12.09,4.7,21.9,12.78,29.42,8.01,7.52,18.72,12.91,31.97,16.18,13.24,3.27,27.27,4.9,41.9,4.9,13.72,0,27.12-.98,40.13-3.02,13.02-2.04,23.95-6.05,32.66-12.09,8.78-6.05,13.17-14.05,13.17-24.1,0-12.58-5.24-21.82-15.63-27.86-10.4-6.05-24.72-10.78-42.98-14.3-18.25-3.51-38.74-7.52-61.46-12.1-18.95-3.51-37.05-8.01-54.38-13.56-17.25-5.56-32.81-12.67-46.52-21.49-13.71-8.83-24.65-20.1-32.66-33.91-8.09-13.81-12.09-31.05-12.09-51.64s4.47-40.2,13.48-55.81c9.01-15.61,21.8-28.35,38.36-38.4,16.56-10.05,36.12-17.49,58.62-22.23,22.49-4.74,46.76-7.19,72.79-7.19,24.18,0,46.9,2.37,68.24,7.19,21.33,4.74,39.82,11.85,55.37,21.08,15.64,9.32,28.04,21,37.28,35.06,9.25,14.05,13.87,29.91,13.87,47.47v8.25c0,2.54-.23,4.49-.69,6.05h-102.99v-5.31c0-9.56-3.23-17.32-9.62-23.37-6.4-6.05-15.18-10.71-26.26-13.97-11.17-3.27-23.8-4.9-38.05-4.9-7.09,0-15.17.49-24.18,1.47-9.02.98-17.63,2.78-25.96,5.31-8.32,2.54-14.94,6.05-19.87,10.54-4.93,4.49-7.47,10.29-7.47,17.32,0,9.07,4.47,16.18,13.48,21.49,9.01,5.31,20.95,9.4,35.89,12.42,14.94,3.02,31.12,6.29,48.68,9.81,19.87,4.49,39.82,9.15,59.69,13.97,19.88,4.74,38.13,11.2,54.69,19.2,16.56,8.01,29.57,19.61,39.05,34.65,9.47,15.03,14.17,35.22,14.17,60.3s-4.62,44.61-13.87,61.45c-9.24,16.83-22.34,30.4-39.43,40.69-17.02,10.3-37.2,17.73-60.39,22.22-22.94,4.58-48.52,6.86-76.48,6.86Z"/>
  <path d="M591.85,520.82c-44.52,0-78.95-12.09-103.36-36.2-24.42-24.1-36.59-62.02-36.59-113.82V115.29h103.75v237.37c0,14.62,1.61,26.8,5.01,36.52,3.31,9.8,8.32,17.73,14.94,23.78,6.63,6.05,14.56,10.46,23.8,13.15,9.25,2.7,19.8,4.17,31.58,4.17,17.02,0,32.58-4,46.52-12.09,13.94-8.01,25.19-19.2,33.74-33.5,8.55-14.3,12.78-30.56,12.78-48.62V115.21h104.45v396.46h-85.26l-7.79-60.3h-5.01c-11.4,15.61-24.18,28.52-38.36,38.81-14.25,10.3-29.96,17.98-47.21,22.96-17.34,5.15-34.98,7.68-53,7.68Z"/>
  <path d="M922.19,649.67V115.29h84.57l9.25,57.28h5.01c14.71-24.1,33.27-41.18,55.77-51.23,22.49-10.05,46.98-15.03,73.55-15.03,34.58,0,64.54,7.27,89.88,21.9,25.34,14.55,44.9,37.18,58.62,67.82,13.71,30.64,20.56,69.86,20.56,117.58s-7.01,85.47-20.94,116.11c-13.94,30.64-33.28,53.52-57.92,68.56-24.65,15.03-53.53,22.63-86.65,22.63-16.56,0-32.58-2.04-47.99-6.05-15.4-4-29.49-10.21-42.28-18.47-12.78-8.25-23.73-18.47-32.65-30.56h-4.24v183.93h-104.52v-.08ZM1120.45,431.1c21.34,0,38.82-4.17,52.61-12.42,13.71-8.25,23.88-20.84,30.58-37.67,6.62-16.83,9.93-36.77,9.93-59.89v-15.04c0-24.1-3.31-44.45-9.93-61.04-6.63-16.59-16.79-29.01-30.58-37.34-13.79-8.26-31.5-12.42-53.3-12.42-20.34,0-37.58,4.49-51.52,13.56-13.95,9.07-24.65,21.98-31.97,38.81-7.39,16.83-11.02,36.85-11.02,59.9v10.54c0,17.08,2.16,32.76,6.4,47.06,4.23,14.3,10.31,26.39,18.1,36.2,7.78,9.81,17.48,17.24,29.11,22.23,11.63,5.07,25.5,7.52,41.59,7.52Z"/>
  <path d="M1591.43,520.82c-44.99,0-83.26-7.44-114.76-22.23-31.5-14.79-55.53-37.59-72.09-68.23-16.56-30.64-24.88-69.62-24.88-116.85s8.24-86.21,24.88-116.85c16.56-30.64,40.36-53.36,71.4-68.23,31.04-14.79,68.55-22.23,112.6-22.23s79.72,7.27,109.76,21.9c30.04,14.54,52.83,36.77,68.16,66.67,15.4,29.91,23.11,67.41,23.11,112.68v30.89h-302.62c.93,23.13,5.47,42.33,13.48,57.69,8.01,15.36,19.8,26.56,35.2,33.58,15.41,7.03,34.43,10.54,57.23,10.54,11.32,0,22.25-1.39,32.66-4.17,10.4-2.78,19.87-7.03,28.42-12.83,8.55-5.8,15.63-12.91,21.34-21.49,5.7-8.5,8.77-18.3,9.24-29.42h104.45c0,23.12-4.86,43.96-14.56,62.59-9.71,18.63-23.11,34.15-40.13,46.74-17.03,12.58-37.67,22.23-61.85,29.01-24.18,6.78-51.14,10.21-81.03,10.21ZM1488.46,269.81h191.78c0-14.06-2.23-26.39-6.77-36.93-4.55-10.54-10.78-19.37-18.79-26.39-8.09-7.02-17.56-12.17-28.43-15.44-10.86-3.27-22.95-4.9-36.2-4.9-20.33,0-37.74,3.11-52.21,9.4-14.48,6.29-25.73,15.69-33.74,28.27-8.09,12.66-13.33,27.94-15.63,46Z"/>
  <path d="M1866.4,511.75V115.29h85.26l8.55,64.8h5.02c4.69-13.56,11.62-26.15,20.56-37.67,9.02-11.52,20.03-20.59,33.05-27.13,13.02-6.54,27.8-9.81,44.44-9.81,8.55,0,16.33.74,23.42,2.29,7.09,1.47,13.24,3.27,18.48,5.31v96.5h-41.2c-16.1,0-29.97,2.62-41.59,7.93-11.63,5.31-21.34,12.83-29.12,22.63-7.78,9.8-13.48,21.24-17.03,34.32-3.54,13.07-5.31,27.86-5.31,44.45v192.92h-104.52v-.08Z"/>
  <path d="M2296.2,520.82c-26.03,0-47.37-4.25-63.93-12.83-16.56-8.5-28.8-21.24-36.59-38.08-7.78-16.83-11.71-37.83-11.71-62.92v-208.77h-57.53v-82.94h61.78L2208.08,0h80.26s0,115.29,0,115.29h83.8v82.94h-83.8v192.92c0,15.03,2.93,26.47,8.86,34.32,5.93,7.76,17.17,11.68,33.74,11.68h41.2v71.58c-6.15,2.04-13.71,3.92-22.72,5.64-9.01,1.72-18.25,3.27-27.73,4.49-9.39,1.31-17.87,1.96-25.49,1.96Z"/>
  <path d="M2637.24,520.82c-44.98,0-83.26-7.44-114.76-22.23-31.5-14.79-55.53-37.59-72.09-68.23-16.56-30.64-24.87-69.62-24.87-116.85s8.31-86.21,24.87-116.85c16.56-30.64,40.36-53.36,71.4-68.23,31.04-14.79,68.55-22.23,112.61-22.23s79.72,7.27,109.74,21.9c30.06,14.54,52.84,36.77,68.25,66.67,15.42,29.91,23.11,67.41,23.11,112.68v30.89h-302.62c.93,23.13,5.47,42.33,13.48,57.69,8.01,15.36,19.8,26.56,35.2,33.58,15.41,7.03,34.43,10.54,57.23,10.54,11.4,0,22.25-1.39,32.66-4.17,10.4-2.78,19.87-7.03,28.42-12.83,8.55-5.8,15.63-12.91,21.34-21.49,5.7-8.5,8.77-18.3,9.24-29.42h104.43c0,23.12-4.84,43.96-14.54,62.59-9.72,18.63-23.11,34.15-40.13,46.74-17.04,12.58-37.68,22.23-61.78,29.01-24.34,6.78-51.37,10.21-81.18,10.21ZM2534.18,269.81h191.86c0-14.06-2.22-26.39-6.77-36.93-4.47-10.54-10.78-19.37-18.79-26.39-8.09-7.02-17.56-12.17-28.43-15.44-10.93-3.27-22.94-4.9-36.19-4.9-20.34,0-37.75,3.11-52.22,9.4-14.48,6.29-25.73,15.69-33.74,28.27-8.09,12.66-13.33,27.94-15.72,46Z"/>
  <path d="M3030.15,520.82c-16.57,0-33.13-1.8-49.78-5.31-16.56-3.51-31.35-9.31-44.36-17.32-13.01-8.01-23.57-19.45-31.56-34.32-8.1-14.79-12.1-33.75-12.1-56.87,0-29.66,6.62-53.6,19.88-71.99,13.25-18.3,32.42-32.11,57.52-41.43,25.11-9.32,54.83-15.44,89.2-18.47,34.34-3.02,72.09-4.49,113.29-4.49v-23.37c0-13.56-2.71-24.76-8.15-33.5-5.48-8.82-13.94-15.69-25.57-20.75-11.63-4.99-27.11-7.52-46.52-7.52-17.03,0-31.59,1.88-43.67,5.64-12.1,3.76-21.36,8.66-27.74,14.71-6.41,6.05-9.64,13.07-9.64,21.08v9.07h-102.29c-.47-3.02-.84-5.56-1.07-7.52-.24-2.04-.39-4.49-.39-7.51,0-23.12,7.31-43.31,22.01-60.63,14.73-17.32,36.14-30.64,64.32-39.96,28.2-9.31,61.93-13.97,101.22-13.97s72.32,4.49,99.12,13.56c26.75,9.07,47.23,23.12,61.46,42.24,14.18,19.12,21.36,43.47,21.36,73.13v174.12c0,9.07,2.21,15.93,6.76,20.75,4.46,4.74,10.1,7.19,16.73,7.19h29.79v70.84c-5.23,2.53-13.47,5.15-24.86,7.93-11.42,2.78-24.67,4.17-39.84,4.17-17.55,0-31.95-2.37-43.37-7.19-11.39-4.74-20.23-11.28-26.64-19.61-6.38-8.33-11.01-17.98-13.85-29.01h-5.7c-9.94,11.03-22.2,21-36.61,29.74-14.48,8.82-30.8,15.44-49.06,19.94-18.18,4.33-38.2,6.62-59.91,6.62ZM3061.33,439.44c13.72,0,27.1-1.88,40.13-5.64,13.01-3.76,24.72-9.07,35.19-15.85,10.4-6.78,18.94-15.36,25.56-25.66,6.63-10.29,9.94-21.49,9.94-33.5v-21.82c-36.96,0-68.47,1.88-94.51,5.64-26.01,3.76-46.05,10.05-59.99,18.87-13.94,8.83-20.94,21-20.94,36.52,0,10.05,2.85,18.06,8.55,24.11,5.69,6.05,13.46,10.46,23.4,13.15,9.94,2.78,20.89,4.17,32.67,4.17Z"/>
  <path d="M3378.9,511.75V115.29h85.26l8.55,59.57h5c9.94-15.61,21.88-28.52,35.9-38.81,13.93-10.3,29.02-17.81,45.12-22.63,16.1-4.74,32.66-7.19,49.78-7.19,28.88,0,53.28,5.39,73.16,16.18,19.87,10.78,35.05,28.27,45.44,52.37h5.02c10.41-15.61,22.64-28.52,36.58-38.81,13.93-10.3,29.35-17.81,46.21-22.63,16.78-4.74,33.98-7.19,51.52-7.19,27.96,0,51.75,5.07,71.41,15.03,19.62,10.05,34.87,26.15,45.83,48.21,10.84,22.14,16.31,50.25,16.31,84.41v257.8h-105.13v-238.92c0-14.05-1.53-26.15-4.63-36.2-3.07-10.05-7.47-18.06-13.17-24.1-5.7-6.05-12.92-10.29-21.63-12.83-8.78-2.54-18.09-3.76-28.03-3.76-15.63,0-29.98,3.92-42.99,11.68-13.01,7.76-23.41,18.88-31.27,33.18-7.78,14.3-11.72,30.56-11.72,48.62v222.33h-103.74v-238.92c0-14.05-1.71-26.15-5.02-36.2-3.31-10.05-7.94-18.06-13.86-24.1-5.94-6.05-13.03-10.29-21.35-12.83-8.29-2.54-17.85-3.76-28.8-3.76-15.63,0-29.95,3.92-42.96,11.68-13.04,7.76-23.36,18.88-30.91,33.18-7.53,14.3-11.39,30.56-11.39,48.62v222.33h-104.51v.16Z"/>
</svg>