<?xml version="1.0" encoding="UTF-8"?>
<svg id="Layer_1" data-name="Layer 1" xmlns="http://www.w3.org/2000/svg" viewBox="0 0 900 300">
  <defs>
    <style>
      .cls-1 {
        fill-rule: evenodd;
      }

      .cls-1, .cls-2 {
        fill: #fff;
      }
    </style>
  </defs>
  <path class="cls-2" d="M232.63,75.71l-96.37,122.19c-9.53,12.2-23.87,19.19-39.36,19.19h-9.04v28.63h9.01c25.01,0,48.19-11.27,63.49-30.9l19.09-23.4h88.41v55.71h30V51.43h-15.31c-19.69,0-37.9,8.87-49.91,24.29ZM203.11,161.43l53.61-68c2.89-3.71,7.13-7.01,11.13-9.14v77.14h-64.76.01Z"/>
  <path class="cls-2" d="M355,107.14h-30v140h30V107.14Z"/>
  <path class="cls-1" d="M565,175.97c0-44.93,30.47-71.69,70.84-71.69,44.54,0,70.59,31.16,70.59,71.69,0,46.5-29.41,74.03-70.59,74.03-44.8,0-70.84-31.44-70.84-74.03ZM635.85,224.29c-22.57,0-39.42-17.85-39.42-48.32,0-27.56,15.54-45.97,39.42-45.97s39.15,18.38,39.15,45.97-14.53,48.32-39.15,48.32Z"/>
  <path class="cls-2" d="M755,107.14h-30v140h30V107.14Z"/>
  <path class="cls-2" d="M812.14,51.43h-30v195.71h30V51.43Z"/>
  <path class="cls-2" d="M489.28,91.81v15.33h-30.57c-23.53,0-37.5,8.14-46.57,27.14v-27.14h-30v140h30v-69.47c0-26.39,17.37-41.96,46.79-41.96h30.36v111.43h30v-111.43h41.43v-28.57h-41.43v-13.76c0-10.5,5.49-16.24,15.43-16.24h28.86v-25.71h-30.07c-28.77,0-44.21,14.14-44.21,40.39Z"/>
  <circle class="cls-2" cx="739.28" cy="70" r="20"/>
  <circle class="cls-2" cx="339.29" cy="70" r="20"/>
</svg>