<?xml version="1.0" encoding="UTF-8"?>
<svg id="Layer_1" data-name="Layer 1" xmlns="http://www.w3.org/2000/svg" viewBox="0 0 900 300">
  <defs>
    <style>
      .cls-1 {
        fill: #fff;
      }
    </style>
  </defs>
  <path class="cls-1" d="M50,231.76v-65.88c.56,0,1.07-.21,1.73-.56l33.38-16.8-35.11-16.76v-63.53l36.98.15-.45,43.18,78.44-43.2h29.06s.01,27.43.01,27.43l-108.45,52.75,108.42,54.58.1,28.46-28.9.02-78.73-44.79.54,44.74-37.01.2Z"/>
  <path class="cls-1" d="M648.04,65.88c.03.36.68.52,1.12.44,1.74-.33,3.15.17,4.78.4,8,1.1,15.51,3.04,22.62,6.78,15.4,8.1,23.39,22.89,23.45,39.94h-20.17c-.94-14.71-8.14-24.45-22.07-28.85-9.78-2.71-19.96-3.05-29.96-1.07-13.02,2.58-23.26,11.01-23.33,25.11-.08,15.83,13.18,22.97,26.9,25.84l34.36,7.18c7.76,1.62,14.83,4.45,21.42,8.68,9.48,6.08,15.85,15.26,17.75,26.38,3.06,17.89-2.57,35.33-17.83,45.83-5.55,3.82-11.51,6.34-18.01,8.19-4.98,1.42-9.89,2.02-14.98,2.8-2.99.46-6.64-.17-6.84.6h-6.27c-.79-.61-1.81-.48-2.72-.39-2.11.22-3.88-.21-5.92-.45-9.35-1.1-18.25-3.22-26.53-7.57-17.67-9.28-25.61-25.94-25.84-44.73l20.46.14c.31,4.95.91,9.51,2.56,14.02,4.34,12.35,14.66,19.04,27.23,21.27,8.51,1.51,17.07,1.62,25.6.18,16.48-2.78,29.75-13.21,28.92-31.11-.67-14.4-11.27-21.8-24.35-24.68l-37.56-8.26c-7.66-1.69-14.66-4.47-21.21-8.46-11.11-6.77-17.24-17.86-17.82-30.74-.69-15.4,6.23-29.25,19.37-37.48,8.09-5.06,17.21-7.89,26.82-9.11,1.52-.19,2.77-.81,4.4-.43.58.13,1.2-.15,1.5-.44h12.16Z"/>
  <polygon class="cls-1" points="850 68.49 850 85.98 790.6 86.15 790.6 231.55 770.88 231.52 770.88 86.13 711.78 86.07 711.82 68.29 850 68.49"/>
  <path class="cls-1" d="M410.31,231.57h-23.82s-60.82-75.78-60.82-75.78l-28.4,29.93-.02,45.83-19.53.03.02-163.22,19.5-.03.06,92,86.9-92.01,24.29.07-69.03,73.15,71.03,89.57c.09.12-.05.36-.17.44Z"/>
  <path class="cls-1" d="M535.41,192.48l-79.2-.04-15,39.13-20.93-.07,63.32-163.14,24.79-.03,62.96,163.3-21-.08-14.93-39.06ZM529.18,175.9l-24.23-63.6-9.22-24.4-9.69,25.96-23.7,62.09,66.84-.05Z"/>
</svg>