<?xml version="1.0" encoding="UTF-8"?>
<svg id="Layer_1" data-name="Layer 1" xmlns="http://www.w3.org/2000/svg" viewBox="0 0 900 300">
  <defs>
    <style>
      .cls-1 {
        fill: #0a0a0a;
      }
    </style>
  </defs>
  <path class="cls-1" d="M805.01,206.53c-5.4,0-10.26-.96-14.59-2.88-4.29-1.96-7.69-4.85-10.21-8.66-2.48-3.81-3.72-8.51-3.72-14.09,0-4.81.89-8.78,2.66-11.93,1.78-3.14,4.2-5.66,7.27-7.55,3.07-1.89,6.53-3.31,10.38-4.27,3.88-1,7.9-1.72,12.04-2.16,4.99-.52,9.04-.98,12.15-1.39,3.11-.44,5.37-1.11,6.77-2,1.44-.92,2.17-2.35,2.17-4.27v-.33c0-4.18-1.24-7.42-3.72-9.71-2.48-2.29-6.04-3.44-10.7-3.44-4.92,0-8.82,1.07-11.71,3.22-2.85,2.15-4.77,4.68-5.77,7.6l-18.75-2.66c1.48-5.18,3.92-9.51,7.32-12.98,3.4-3.51,7.56-6.14,12.48-7.88,4.92-1.78,10.36-2.66,16.31-2.66,4.11,0,8.19.48,12.27,1.44,4.06.96,7.78,2.55,11.15,4.77,3.36,2.18,6.07,5.16,8.1,8.93,2.07,3.77,3.11,8.49,3.11,14.15v57.04h-19.31v-11.71h-.66c-1.22,2.37-2.94,4.59-5.16,6.66-2.18,2.03-4.94,3.68-8.27,4.94-3.29,1.22-7.16,1.83-11.6,1.83ZM810.22,191.77c4.03,0,7.53-.79,10.49-2.39,2.96-1.63,5.24-3.77,6.82-6.44,1.63-2.66,2.44-5.57,2.44-8.71v-10.04c-.63.52-1.7,1-3.22,1.44-1.47.44-3.14.83-4.99,1.17-1.85.33-3.68.63-5.49.89-1.81.26-3.39.48-4.72.67-3,.41-5.68,1.07-8.05,2-2.37.92-4.23,2.22-5.6,3.88-1.37,1.63-2.05,3.74-2.05,6.33,0,3.7,1.35,6.49,4.05,8.38,2.7,1.89,6.14,2.83,10.32,2.83Z"/>
  <path class="cls-1" d="M724.47,204.81v-85.22h19.47v14.2h.89c1.55-4.92,4.22-8.71,7.99-11.37,3.81-2.7,8.16-4.05,13.04-4.05,1.11,0,2.35.06,3.72.17,1.41.07,2.57.2,3.5.39v18.48c-.85-.3-2.2-.55-4.05-.78-1.81-.26-3.57-.39-5.27-.39-3.66,0-6.95.8-9.88,2.39-2.88,1.55-5.16,3.72-6.82,6.49-1.66,2.77-2.5,5.97-2.5,9.6v50.1h-20.09Z"/>
  <path class="cls-1" d="M671,206.48c-8.32,0-15.54-1.83-21.64-5.49-6.1-3.66-10.84-8.78-14.2-15.37-3.33-6.58-4.99-14.28-4.99-23.08s1.66-16.51,4.99-23.14c3.37-6.62,8.1-11.76,14.2-15.42,6.1-3.66,13.32-5.49,21.64-5.49s15.53,1.83,21.64,5.49c6.1,3.66,10.82,8.8,14.15,15.42,3.37,6.62,5.05,14.33,5.05,23.14s-1.68,16.5-5.05,23.08c-3.33,6.58-8.04,11.71-14.15,15.37-6.1,3.66-13.32,5.49-21.64,5.49ZM671.11,190.39c4.51,0,8.29-1.24,11.32-3.72,3.03-2.52,5.29-5.88,6.77-10.1,1.52-4.22,2.27-8.91,2.27-14.09s-.76-9.93-2.27-14.15c-1.48-4.25-3.74-7.64-6.77-10.15-3.03-2.52-6.81-3.77-11.32-3.77s-8.47,1.26-11.54,3.77c-3.03,2.52-5.31,5.9-6.82,10.15-1.48,4.22-2.22,8.93-2.22,14.15s.74,9.88,2.22,14.09c1.52,4.22,3.79,7.58,6.82,10.1,3.07,2.48,6.92,3.72,11.54,3.72Z"/>
  <path class="cls-1" d="M583.35,206.48c-8.54,0-15.92-1.78-22.14-5.33-6.18-3.59-10.93-8.66-14.26-15.2-3.33-6.58-4.99-14.33-4.99-23.25s1.66-16.46,4.99-23.08c3.37-6.66,8.06-11.84,14.09-15.53,6.03-3.74,13.11-5.6,21.25-5.6,5.25,0,10.21.85,14.87,2.55,4.7,1.66,8.84,4.25,12.43,7.77,3.62,3.51,6.47,7.99,8.54,13.43,2.07,5.4,3.11,11.84,3.11,19.31v6.16h-69.85v-13.54h50.6c-.04-3.85-.87-7.27-2.5-10.26-1.63-3.03-3.9-5.42-6.82-7.16-2.88-1.74-6.25-2.61-10.1-2.61-4.11,0-7.71,1-10.82,3-3.11,1.96-5.53,4.55-7.27,7.77-1.7,3.18-2.57,6.68-2.61,10.49v11.82c0,4.96.91,9.21,2.72,12.76,1.81,3.51,4.35,6.21,7.6,8.1,3.26,1.85,7.07,2.77,11.43,2.77,2.92,0,5.57-.41,7.93-1.22,2.37-.85,4.42-2.09,6.16-3.72,1.74-1.63,3.05-3.64,3.94-6.05l18.75,2.11c-1.18,4.96-3.44,9.28-6.77,12.98-3.29,3.66-7.51,6.51-12.65,8.54-5.14,2-11.02,3-17.64,3Z"/>
  <path class="cls-1" d="M534.15,119.59v15.54h-48.99v-15.54h48.99ZM497.25,99.17h20.08v80.01c0,2.7.41,4.77,1.22,6.21.85,1.41,1.96,2.37,3.33,2.88,1.37.52,2.89.78,4.55.78,1.26,0,2.4-.09,3.44-.28,1.07-.19,1.89-.35,2.44-.5l3.38,15.7c-1.07.37-2.61.78-4.61,1.22-1.96.44-4.36.7-7.21.78-5.03.15-9.56-.61-13.59-2.27-4.03-1.7-7.23-4.33-9.6-7.88-2.33-3.55-3.48-7.99-3.44-13.32v-83.33Z"/>
  <path class="cls-1" d="M441.12,206.48c-8.54,0-15.92-1.78-22.14-5.33-6.18-3.59-10.93-8.66-14.26-15.2-3.33-6.58-4.99-14.33-4.99-23.25s1.66-16.46,4.99-23.08c3.37-6.66,8.06-11.84,14.09-15.53,6.03-3.74,13.11-5.6,21.25-5.6,5.25,0,10.21.85,14.87,2.55,4.7,1.66,8.84,4.25,12.43,7.77,3.62,3.51,6.47,7.99,8.54,13.43,2.07,5.4,3.11,11.84,3.11,19.31v6.16h-69.85v-13.54h50.6c-.04-3.85-.87-7.27-2.5-10.26-1.63-3.03-3.9-5.42-6.82-7.16-2.88-1.74-6.25-2.61-10.1-2.61-4.11,0-7.71,1-10.82,3-3.11,1.96-5.53,4.55-7.27,7.77-1.7,3.18-2.57,6.68-2.61,10.49v11.82c0,4.96.91,9.21,2.72,12.76,1.81,3.51,4.35,6.21,7.6,8.1,3.25,1.85,7.06,2.77,11.43,2.77,2.92,0,5.57-.41,7.93-1.22,2.37-.85,4.42-2.09,6.16-3.72,1.74-1.63,3.05-3.64,3.94-6.05l18.75,2.11c-1.18,4.96-3.44,9.28-6.77,12.98-3.29,3.66-7.51,6.51-12.65,8.54-5.14,2-11.02,3-17.64,3Z"/>
  <path class="cls-1" d="M267.1,91.18h25.19l33.73,82.34h1.33l33.73-82.34h25.19v113.63h-19.75v-78.06h-1.05l-31.4,77.73h-14.76l-31.4-77.9h-1.05v78.23h-19.75v-113.63Z"/>
  <path class="cls-1" d="M191.52,99.85c3.13-3.13,7.97-2.94,9.98.37,2.17,3.56,3.8,7.4,4.97,11.43.65,2.29-.1,4.97-2,6.87l-61.28,61.28c-3.7,3.7-8.3,6.26-13.19,7.3l-5.09,1.08c-4.87,1.06-9.51,3.62-13.19,7.3l-47.05,47.05c-2-7.73-2.88-12.94,3.39-19.22l123.46-123.46ZM204.79,126.25c2.04-2.04,5.19-.86,4.99,1.84-1.27,16.52-9.14,33.92-23.17,47.95-10.69,11.72-40.87,29.63-62.44,41.63-4.42,2.45-8.01-2.78-4.4-6.4l85.02-85.02ZM176.6,75.08c1.94-1.94,4.81-2.35,6.77-1,4.09,2.78,7.91,6.81,9.88,11.68.74,1.88.1,4.19-1.51,5.81l-66,66c-3.7,3.7-8.3,6.26-13.19,7.3l-5.09,1.08c-4.87,1.06-9.51,3.62-13.19,7.3l-40.71,40.71c-2-7.73-1.04-14.78,5.23-21.06l117.81-117.81ZM148.62,63.34c3.68-3.68,8.96-5.11,13.29-3.48,2.72,1.04,5.34,2.31,7.81,3.8,3.27,1.96,3.44,6.75.37,9.81l-60.36,60.36c-3.46,3.46-8.16,5.3-12.66,4.97-4.72-.35-9.69,1.6-13.35,5.26l-33.06,33.06c-2-7.73.59-16.42,6.87-22.7l10.71-10.71,80.38-80.38ZM138.95,57.47c2.9-.04,4.03,3.41,1.82,5.62l-64.18,64.18-10.1,10.1-.06.06c-2.13,2.13-5.28.21-4.09-2.49l9.9-22.49c.55-1.37,1.16-2.76,1.84-4.17l.06-.14c5.7-12.08,14.88-24.9,23.51-33.53,13.84-13.84,26.27-16.99,41.3-17.13Z"/>
</svg>