<?xml version="1.0" encoding="UTF-8"?>
<svg id="Layer_1" data-name="Layer 1" xmlns="http://www.w3.org/2000/svg" viewBox="0 0 900 300">
  <defs>
    <style>
      .cls-1 {
        fill: #fff;
      }
    </style>
  </defs>
  <g>
    <path class="cls-1" d="M281.46,209.25v4.75s-20,0-20,0v-118.04h20v40.02c0,1.82,2.14,2.7,3.49,1.49,5.04-4.53,12.34-7.41,20.78-7.41,24.43,0,39.02,17.38,39.02,42.63s-14.59,42.63-39.35,42.63c-7.96,0-15.39-2.8-20.5-7.58-1.31-1.22-3.44-.27-3.44,1.52ZM324.75,172.68c0-15.25-7.96-25.25-20.04-25.25s-20.03,10-20.03,25.25,7.95,25.25,20.03,25.25,20.04-10,20.04-25.25Z"/>
    <path class="cls-1" d="M391.26,96.94v21.47h-20.68v-21.47h20.68ZM370.92,131.36h20.17v82.63h-20.17v-82.63Z"/>
    <path class="cls-1" d="M458.3,148.25c-12.79,0-17.87,10.98-17.87,26.72v39.02h-20.16v-82.63h20.16v3.66c0,1.38,1.74,1.96,2.59.87,4.09-5.3,9.92-4.53,18.56-4.53h9.68v16.89h-12.95Z"/>
    <path class="cls-1" d="M485,172.68c0-25.25,14.59-42.63,39.02-42.63,8.55,0,15.77,2.87,20.77,7.39,1.35,1.22,3.49.34,3.49-1.48v-40.01s20,0,20,0v118.04h-20.01v-4.75c0-1.79-2.13-2.74-3.44-1.52-5.1,4.78-12.54,7.58-20.49,7.58-24.76,0-39.35-17.38-39.35-42.63ZM545.07,172.68c0-15.25-7.96-25.25-20.04-25.25s-20.03,10-20.03,25.25,7.95,25.25,20.03,25.25,20.04-10,20.04-25.25Z"/>
    <path class="cls-1" d="M670.27,186.45c-3.11,17.54-18.53,28.85-38.86,28.85-27.05,0-42.14-21.31-42.14-42.95s13.44-42.3,40.5-42.3,40.17,20.17,40.17,39.84c0,2.79-.16,5.25-.33,6.89h-58.59c-1.3,0-2.27,1.2-2.03,2.48,2.21,11.85,10.45,19.33,22.42,19.33,10.33,0,17.05-4.26,19.18-12.13h19.68ZM611.66,163.5h35.75c1.29,0,2.27-1.18,2.04-2.45-1.68-9.24-8.67-15.91-19.69-15.91s-17.46,5.08-20.12,15.76c-.33,1.31.65,2.6,2.01,2.6Z"/>
    <path class="cls-1" d="M732.62,210.06l-12.79,37.38h-19.18l10.65-30.6c.64-1.84.62-3.84-.04-5.67l-29.13-79.8h20.49l19.18,56.73,19.02-56.73h20.66l-28.85,78.69Z"/>
    <path class="cls-1" d="M850,186.45c-3.11,17.54-18.53,28.85-38.85,28.85-27.05,0-42.14-21.31-42.14-42.95s13.44-42.3,40.5-42.3,40.17,20.17,40.17,39.84c0,2.79-.16,5.25-.33,6.89h-58.59c-1.3,0-2.27,1.2-2.03,2.48,2.21,11.85,10.45,19.33,22.42,19.33,10.33,0,17.05-4.26,19.18-12.13h19.67ZM791.4,163.5h35.75c1.29,0,2.27-1.18,2.04-2.45-1.68-9.24-8.67-15.91-19.68-15.91s-17.46,5.08-20.12,15.76c-.33,1.31.65,2.6,2.01,2.6Z"/>
  </g>
  <g>
    <path class="cls-1" d="M173.15,115.47c-9.2-5.55-13.17-19.47-9.12-28.95,3.19-7.46,14.68-33.96,14.68-33.96h-39.88L50,230.41s24.91-16.8,61.67-.68c11.5,5.04,23.6,9.81,37.24,9.01,32.1-1.91,57.74-26.69,60.66-58.72,2.58-28.27-13.44-50.69-36.41-64.55ZM183.72,177.93c-1.8,18.26-16.57,33.03-34.83,34.81-24.67,2.45-45.2-18.08-42.77-42.77,1.8-18.26,16.57-33.03,34.83-34.83,24.69-2.42,45.22,18.11,42.77,42.8Z"/>
    <path class="cls-1" d="M163.35,175.83c-.86,8.68-7.88,15.7-16.55,16.54-11.72,1.16-21.48-8.59-20.33-20.33.86-8.68,7.88-15.7,16.55-16.55,11.73-1.15,21.49,8.6,20.33,20.34Z"/>
  </g>
</svg>