<?xml version="1.0" encoding="UTF-8"?>
<svg id="Layer_1" data-name="Layer 1" xmlns="http://www.w3.org/2000/svg" viewBox="0 0 900 300">
  <defs>
    <style>
      .cls-1 {
        fill: #fff;
      }
    </style>
  </defs>
  <path class="cls-1" d="M666.07,113.55v-10.11h34.91v-10.79h-34.91v-8.85h42.97v-31.63h-81.08v93h83.45v-31.63h-45.34Z"/>
  <path class="cls-1" d="M378.75,247.82h40.19l-35.25-93.01h-47.61l-35.25,93.01h40.19l6.56-18.39h24.62l6.56,18.39h0ZM351.42,218.64l8.46-23.72,8.46,23.72h-16.93Z"/>
  <path class="cls-1" d="M623.56,52.18h-37.43l-25.49,40.45v-40.45h-38.12v93h38.12v-41.69l21.74,41.69h40.91l-29.65-49.23,29.91-43.78Z"/>
  <path class="cls-1" d="M474.22,52.14v60.87l-20.38-60.87h-38.12v93h38.12v-60.88l20.38,60.87h0s38.11,0,38.11,0V52.14h-38.11Z"/>
  <path class="cls-1" d="M359.88,50c-32.74,0-48.59,12.57-48.59,48.68s15.85,48.68,48.59,48.68,48.59-12.57,48.59-48.68-15.85-48.68-48.59-48.68ZM366.2,131.29c0,3.21-.43,6.52-6.32,6.52s-6.32-3.31-6.32-6.52v-65.23c0-3.21.43-6.52,6.32-6.52s6.32,3.31,6.32,6.52v65.23Z"/>
  <path class="cls-1" d="M464.05,152.63c-32.74,0-48.59,12.57-48.59,48.68s15.85,48.68,48.59,48.68,48.59-12.57,48.59-48.68-15.85-48.68-48.59-48.68h0ZM470.37,233.93c0,3.21-.43,6.52-6.32,6.52s-6.32-3.31-6.32-6.52v-65.22c0-3.21.43-6.52,6.32-6.52s6.32,3.31,6.32,6.52v65.22Z"/>
  <path class="cls-1" d="M246.41,152.63c-34.43,0-46.42,15.88-46.42,48.68v46.58h92.82v-46.58c0-32.8-11.99-48.68-46.42-48.68h0ZM283.73,203.41c0,5.9-3.15,6.33-6.22,6.33h-62.19c-3.07,0-6.22-.43-6.22-6.33v-6.33h74.62v6.33h0Z"/>
  <path class="cls-1" d="M279.65,50.63c-14.37,0-20.51,8.37-33.24,8.37s-18.87-8.37-33.25-8.37-24.58,8.37-24.58,8.37v86.18h38.11v-53.21c0-3.21.43-6.52,6.32-6.52s6.32,3.31,6.32,6.52v53.22h14.16v-53.22c0-3.21.43-6.52,6.32-6.52s6.32,3.31,6.32,6.52v53.22h38.11V59s-10.22-8.37-24.59-8.37Z"/>
</svg>